cyclingleg_states
version=1
nRows=9
nColumns=49
inDegrees=yes

# SIMM Motion File Header:
name cyclingleg_states
datacolumns 49
datarows 9
otherdata 1
range 0.00000000 0.00690139
endheader
time	/jointset/bb/crank_angle/value	/jointset/bb/crank_angle/speed	/jointset/spindle/pedal_angle_r/value	/jointset/spindle/pedal_angle_r/speed	/jointset/ground_pelvis/pelvis_tilt/value	/jointset/ground_pelvis/pelvis_tilt/speed	/jointset/ground_pelvis/pelvis_list/value	/jointset/ground_pelvis/pelvis_list/speed	/jointset/ground_pelvis/pelvis_rotation/value	/jointset/ground_pelvis/pelvis_rotation/speed	/jointset/ground_pelvis/pelvis_tx/value	/jointset/ground_pelvis/pelvis_tx/speed	/jointset/ground_pelvis/pelvis_ty/value	/jointset/ground_pelvis/pelvis_ty/speed	/jointset/ground_pelvis/pelvis_tz/value	/jointset/ground_pelvis/pelvis_tz/speed	/jointset/hip_r/hip_angle_r/value	/jointset/hip_r/hip_angle_r/speed	/jointset/hip_r/hip_adduction_r/value	/jointset/hip_r/hip_adduction_r/speed	/jointset/hip_r/hip_rotation_r/value	/jointset/hip_r/hip_rotation_r/speed	/jointset/knee_r/knee_angle_r/value	/jointset/knee_r/knee_angle_r/speed	/jointset/knee_r/tib_tx_r/value	/jointset/knee_r/tib_tx_r/speed	/jointset/knee_r/tib_ty_r/value	/jointset/knee_r/tib_ty_r/speed	/jointset/tib_pat_r/pat_angle_r/value	/jointset/tib_pat_r/pat_angle_r/speed	/jointset/tib_pat_r/pat_tx_r/value	/jointset/tib_pat_r/pat_tx_r/speed	/jointset/tib_pat_r/pat_ty_r/value	/jointset/tib_pat_r/pat_ty_r/speed	/jointset/ankle_r/ankle_angle_r/value	/jointset/ankle_r/ankle_angle_r/speed	/jointset/subtalar_r/subtalar_angle_r/value	/jointset/subtalar_r/subtalar_angle_r/speed	/jointset/mtp_r/mtp_angle_r/value	/jointset/mtp_r/mtp_angle_r/speed	/forceset/bifemlh_r/activation	/forceset/bifemlh_r/fiber_length	/forceset/bifemsh_r/activation	/forceset/bifemsh_r/fiber_length	/forceset/glut_max2_r/activation	/forceset/glut_max2_r/fiber_length	/forceset/vas_int_r/activation	/forceset/vas_int_r/fiber_length
      0.00000000	   -914.65007274	   -623.68232248	    917.87876384	    335.77557784	      0.00000000	      0.00000000	      0.00000000	     -0.00000000	     -0.00000000	     -0.00000000	     -0.09999993	      0.00000003	     -0.05000000	      0.00000000	     -0.00000000	     -0.00000000	     38.37945005	     79.05950269	      4.38328999	      0.28504608	      0.99814198	    -28.24908706	    -56.98635067	   -336.49442248	      0.00458105	      0.02895461	     -0.47505372	     -0.10011733	     17.32595314	      9.02009570	      0.04369809	     -0.09768415	     -0.02303516	      0.01247123	     22.25060728	    -29.97358386	      0.00000000	     -0.00000000	     -0.00000000	     -0.00000000	      0.02000000	      0.11690036	      0.02000000	      0.16802867	      0.02000000	      0.12867679	      0.02000000	      0.12656749
      0.00042876	   -914.91715200	   -622.13363397	    918.02259754	    335.15112382	     -0.00000000	     -0.00000000	     -0.00000000	     -0.00000000	      0.00000000	      0.00000000	     -0.10000019	     -0.00123404	     -0.05000000	      0.00000000	      0.00000000	     -0.00000000	     38.41343623	     79.47083791	      4.38340995	      0.27451741	      0.98604185	    -28.19298551	    -57.13059639	   -336.35055059	      0.00459340	      0.02865627	     -0.47509666	     -0.10021287	     17.32979641	      8.90727129	      0.04365619	     -0.09774136	     -0.02302982	      0.01245789	     22.23783600	    -29.59935885	     -0.00000000	     -0.00000000	     -0.00000000	      0.00000000	      0.02000082	      0.11685258	      0.02000000	      0.16794646	      0.02000000	      0.12870187	      0.08952000	      0.12656713
      0.00085752	   -915.18354449	   -620.46556105	    918.16615300	    334.47103392	     -0.00000000	     -0.00000000	     -0.00000000	      0.00000000	      0.00000000	      0.00000000	     -0.10000099	     -0.00248492	     -0.05000000	      0.00000000	     -0.00000000	     -0.00000000	     38.44759417	     79.85902353	      4.38352538	      0.26393901	      0.97396699	    -28.13057274	    -57.27476451	   -336.12483155	      0.00460562	      0.02834957	     -0.47513965	     -0.10028321	     17.33359107	      8.79314430	      0.04361428	     -0.09777449	     -0.02302448	      0.01244171	     22.22522610	    -29.22023056	      0.00000000	      0.00000000	      0.00000000	     -0.00000000	      0.02000321	      0.11680483	      0.02000000	      0.16786428	      0.02000000	      0.12872699	      0.14542776	      0.12651888
      0.00142252	   -915.53343206	   -618.01732869	    918.35485003	    333.45529510	     -0.00000000	     -0.00000000	      0.00000000	      0.00000000	      0.00000000	     -0.00000000	     -0.10000287	     -0.00418156	     -0.05000000	      0.00000000	     -0.00000000	     -0.00000000	     38.49284922	     80.32611563	      4.38367055	      0.24991183	      0.95809926	    -28.03546029	    -57.46455494	   -335.66296436	      0.00462152	      0.02792987	     -0.47519632	     -0.10032541	     17.33851610	      8.63992885	      0.04355904	     -0.09776974	     -0.02301746	      0.01241463	     22.20886004	    -28.71033648	      0.00000000	      0.00000000	      0.00000000	      0.00000000	      0.02000854	      0.11674195	      0.02000000	      0.16775610	      0.02000000	      0.12876020	      0.20632135	      0.12643643
      0.00215041	   -915.98197209	   -614.30142443	    918.59701444	    331.87307037	     -0.00000000	     -0.00000000	      0.00000000	      0.00000000	     -0.00000000	     -0.00000000	     -0.10000674	     -0.00649319	     -0.05000000	     -0.00000000	     -0.00000000	     -0.00000000	     38.55150970	     80.83360103	      4.38384583	      0.23168377	      0.93774525	    -27.88457435	    -57.70856112	   -334.70885419	      0.00464165	      0.02735768	     -0.47526934	     -0.10026952	     17.34473135	      8.43617735	      0.04348790	     -0.09765767	     -0.02300844	      0.01236702	     22.18820767	    -28.03070679	      0.00000000	      0.00000000	      0.00000000	      0.00000000	      0.02001870	      0.11666113	      0.02000000	      0.16761702	      0.02000000	      0.12880321	      0.27083887	      0.12632411
      0.00308459	   -916.55314944	   -608.27241582	    918.90586615	    329.21857803	     -0.00000000	     -0.00000000	      0.00000000	      0.00000000	     -0.00000000	     -0.00000000	     -0.10001430	     -0.00976658	     -0.05000000	     -0.00000000	     -0.00000000	     -0.00000000	     38.62725212	     81.28163927	      4.38405124	      0.20803965	      0.91180954	    -27.62832084	    -58.02037710	   -332.69568222	      0.00466684	      0.02655951	     -0.47536288	     -0.09995526	     17.35248494	      8.16065538	      0.04339683	     -0.09728042	     -0.02299692	      0.01227775	     22.16244759	    -27.10916238	      0.00000000	      0.00000000	      0.00000000	      0.00000000	      0.02003644	      0.11655783	      0.02000000	      0.16743924	      0.02000000	      0.12885880	      0.33859035	      0.12619575
      0.00427727	   -917.27271846	   -597.76929131	    919.29583778	    324.41945845	     -0.00000000	      0.00000000	      0.00000000	      0.00000000	     -0.00000000	     -0.00000000	     -0.10002878	     -0.01465204	     -0.05000000	      0.00000000	     -0.00000000	      0.00000000	     38.72432804	     81.40984706	      4.38428122	      0.17756688	      0.87911753	    -27.16342346	    -58.41483098	   -328.39312204	      0.00469784	      0.02541274	     -0.47548161	     -0.09901944	     17.36199408	      7.77893734	      0.04328133	     -0.09628393	     -0.02298238	      0.01210162	     22.13086579	    -25.82867442	      0.00000000	      0.00000000	      0.00000000	     -0.00000000	      0.02006555	      0.11642696	      0.02000000	      0.16721409	      0.02000000	      0.12893033	      0.40886931	      0.12607971
      0.00558933	   -918.04693394	   -581.51642038	    919.71675335	    316.74588184	     -0.00000000	      0.00000000	      0.00000000	      0.00000000	     -0.00000000	     -0.00000000	     -0.10005216	     -0.02119561	     -0.05000000	      0.00000000	     -0.00000000	      0.00000000	     38.83083782	     80.80569674	      4.38449220	      0.14412595	      0.84393542	    -26.42332795	    -58.84105486	   -320.77580236	      0.00473026	      0.02396054	     -0.47561037	     -0.09709457	     17.37189978	      7.31250827	      0.04315618	     -0.09432566	     -0.02296668	      0.01180409	     22.09798793	    -24.26024371	      0.00000000	      0.00000000	      0.00000000	     -0.00000000	      0.02010430	      0.11628484	      0.02000000	      0.16697018	      0.02000000	      0.12900938	      0.47199482	      0.12601904
      0.00690139	   -918.79654022	   -560.36902198	    920.12590538	    306.53817082	      0.00000000	      0.00000000	      0.00000000	      0.00000000	     -0.00000000	     -0.00000000	     -0.10008488	     -0.02883842	     -0.05000000	      0.00000000	      0.00000000	      0.00000000	     38.93601449	     79.38675238	      4.38465991	      0.11179336	      0.80988359	    -25.44604876	    -59.25525494	   -310.12617143	      0.00476065	      0.02234019	     -0.47573598	     -0.09421604	     17.38116555	      6.80634326	      0.04303421	     -0.09145160	     -0.02295145	      0.01139785	     22.06726384	    -22.55539331	      0.00000000	      0.00000000	     -0.00000000	     -0.00000000	      0.02014860	      0.11614534	      0.02000000	      0.16673221	      0.02000000	      0.12908818	      0.52465950	      0.12600685
